<svg width="64" height="64" viewBox="0 0 64 64" fill="none" xmlns="http://www.w3.org/2000/svg">
  <circle cx="16.5" cy="32" r="13.5" stroke="#2563EB" stroke-width="3" opacity="0.22" />
  <circle cx="28.5" cy="32" r="13.5" stroke="#2563EB" stroke-width="6" opacity="0.22" />
  <path d="M47.5 50C57.165 50 65 42.165 65 32.5C65 22.835 57.165 15 47.5 15C37.835 15 30 22.835 30 32.5C30 42.165 37.835 50 47.5 50Z" fill="#2563EB" opacity="0.75"/>
  <path d="M52 49C61.665 49 69.5 41.165 69.5 31.5C69.5 21.835 61.665 14 52 14C42.335 14 34.5 21.835 34.5 31.5C34.5 41.165 42.335 49 52 49ZM52 40.3C56.86 40.3 60.8 36.36 60.8 31.5C60.8 26.64 56.86 22.7 52 22.7C47.14 22.7 43.2 26.64 43.2 31.5C43.2 36.36 47.14 40.3 52 40.3Z" fill="#1D4ED8"/>
</svg>
