<svg xmlns="http://www.w3.org/2000/svg" viewBox="0 0 1400 900" fill="none">
  <defs>
    <filter id="grain" x="-10%" y="-10%" width="120%" height="120%">
      <feTurbulence type="fractalNoise" baseFrequency="0.85" numOctaves="2" stitchTiles="stitch" />
      <feColorMatrix
        type="matrix"
        values="1 0 0 0 0
                0 1 0 0 0
                0 0 1 0 0
                0 0 0 0.055 0"
      />
    </filter>
    <symbol id="sage-mark" viewBox="0 0 36 28">
      <path d="M13 10 2 4l3 10 8-1z" fill="#d3c2a0" fill-opacity=".26" />
      <path d="m23 10 11-6-3 10-8-1z" fill="#d3c2a0" fill-opacity=".26" />
      <circle cx="18" cy="14" r="8" fill="#d8c8aa" fill-opacity=".21" />
      <path d="M12 23c2.4-3 9.6-3 12 0" stroke="#d8c8aa" stroke-opacity=".2" stroke-width="1.5" stroke-linecap="round" />
    </symbol>
  </defs>

  <g fill="#d2c2a1" fill-opacity=".16" font-family="Georgia, 'Times New Roman', serif" font-size="43" letter-spacing="1.1">
    <text x="184" y="102">MEANING, MADE YOU MUST.</text>
    <text x="796" y="232">QUIET MIND. CLEAR PATH.</text>
    <text x="248" y="396">RUSH NOT. SEE MORE.</text>
    <text x="850" y="564">LITTLE, THE EGO IS.</text>
    <text x="152" y="738">PATIENCE, YOUR ALLY.</text>
    <text x="824" y="826">IN STILLNESS, LIGHT.</text>
  </g>

  <g fill="#ddcfb4" fill-opacity=".15" font-family="Georgia, 'Times New Roman', serif" font-size="26" letter-spacing=".7">
    <text x="976" y="132">answers, forced are hollow</text>
    <text x="236" y="258">step by step, meaning arrives</text>
    <text x="1006" y="408">judge less, observe more</text>
    <text x="276" y="596">small acts, steady spirit</text>
    <text x="956" y="704">calm is a discipline</text>
  </g>

  <g opacity=".42">
    <use href="#sage-mark" x="1090" y="168" width="50" height="38" />
    <use href="#sage-mark" x="315" y="330" width="40" height="30" />
    <use href="#sage-mark" x="1176" y="488" width="46" height="34" />
    <use href="#sage-mark" x="382" y="706" width="44" height="33" />
  </g>

  <rect width="1400" height="900" fill="#0c0b10" opacity=".02" />
  <rect width="1400" height="900" filter="url(#grain)" />
</svg>
